<svg width="221" height="185" viewBox="0 0 221 185" fill="none" xmlns="http://www.w3.org/2000/svg">
<rect x="61.2739" y="22.274" width="101.452" height="101.452" rx="19" stroke="#7216F4" stroke-width="2"/>
<rect x="82.3152" y="43.3151" width="61.1233" height="61.1233" stroke="#7216F4" stroke-width="2"/>
<line x1="61.0273" y1="43.3151" x2="48.9999" y2="43.3151" stroke="#7216F4" stroke-width="2" stroke-linecap="round"/>
<line x1="61.0273" y1="104.685" x2="48.9999" y2="104.685" stroke="#7216F4" stroke-width="2" stroke-linecap="round"/>
<line x1="61.0273" y1="95.9178" x2="48.9999" y2="95.9178" stroke="#7216F4" stroke-width="2" stroke-linecap="round"/>
<line x1="61.0273" y1="87.1507" x2="48.9999" y2="87.1507" stroke="#7216F4" stroke-width="2" stroke-linecap="round"/>
<line x1="61.0273" y1="78.3836" x2="48.9999" y2="78.3836" stroke="#7216F4" stroke-width="2" stroke-linecap="round"/>
<line x1="61.0273" y1="69.6164" x2="48.9999" y2="69.6164" stroke="#7216F4" stroke-width="2" stroke-linecap="round"/>
<line x1="61.0273" y1="60.8493" x2="48.9999" y2="60.8493" stroke="#7216F4" stroke-width="2" stroke-linecap="round"/>
<line x1="61.0273" y1="52.0822" x2="48.9999" y2="52.0822" stroke="#7216F4" stroke-width="2" stroke-linecap="round"/>
<line x1="82.3152" y1="123.973" x2="82.3152" y2="136" stroke="#7216F4" stroke-width="2" stroke-linecap="round"/>
<line x1="143.685" y1="123.973" x2="143.685" y2="136" stroke="#7216F4" stroke-width="2" stroke-linecap="round"/>
<line x1="134.918" y1="123.973" x2="134.918" y2="136" stroke="#7216F4" stroke-width="2" stroke-linecap="round"/>
<line x1="126.151" y1="123.973" x2="126.151" y2="136" stroke="#7216F4" stroke-width="2" stroke-linecap="round"/>
<line x1="117.384" y1="123.973" x2="117.384" y2="136" stroke="#7216F4" stroke-width="2" stroke-linecap="round"/>
<line x1="108.616" y1="123.973" x2="108.616" y2="136" stroke="#7216F4" stroke-width="2" stroke-linecap="round"/>
<line x1="99.8494" y1="123.973" x2="99.8494" y2="136" stroke="#7216F4" stroke-width="2" stroke-linecap="round"/>
<line x1="91.0823" y1="123.973" x2="91.0823" y2="136" stroke="#7216F4" stroke-width="2" stroke-linecap="round"/>
<line x1="82.3152" y1="10" x2="82.3152" y2="22.0274" stroke="#7216F4" stroke-width="2" stroke-linecap="round"/>
<line x1="143.685" y1="10" x2="143.685" y2="22.0274" stroke="#7216F4" stroke-width="2" stroke-linecap="round"/>
<line x1="134.918" y1="10" x2="134.918" y2="22.0274" stroke="#7216F4" stroke-width="2" stroke-linecap="round"/>
<line x1="126.151" y1="10" x2="126.151" y2="22.0274" stroke="#7216F4" stroke-width="2" stroke-linecap="round"/>
<line x1="117.384" y1="10" x2="117.384" y2="22.0274" stroke="#7216F4" stroke-width="2" stroke-linecap="round"/>
<line x1="108.616" y1="10" x2="108.616" y2="22.0274" stroke="#7216F4" stroke-width="2" stroke-linecap="round"/>
<line x1="99.8494" y1="10" x2="99.8494" y2="22.0274" stroke="#7216F4" stroke-width="2" stroke-linecap="round"/>
<line x1="91.0823" y1="10" x2="91.0823" y2="22.0274" stroke="#7216F4" stroke-width="2" stroke-linecap="round"/>
<line x1="175" y1="43.3151" x2="162.973" y2="43.3151" stroke="#7216F4" stroke-width="2" stroke-linecap="round"/>
<line x1="175" y1="104.685" x2="162.973" y2="104.685" stroke="#7216F4" stroke-width="2" stroke-linecap="round"/>
<line x1="175" y1="95.9178" x2="162.973" y2="95.9178" stroke="#7216F4" stroke-width="2" stroke-linecap="round"/>
<line x1="175" y1="87.1507" x2="162.973" y2="87.1507" stroke="#7216F4" stroke-width="2" stroke-linecap="round"/>
<line x1="175" y1="78.3836" x2="162.973" y2="78.3836" stroke="#7216F4" stroke-width="2" stroke-linecap="round"/>
<line x1="175" y1="69.6164" x2="162.973" y2="69.6164" stroke="#7216F4" stroke-width="2" stroke-linecap="round"/>
<line x1="175" y1="60.8493" x2="162.973" y2="60.8493" stroke="#7216F4" stroke-width="2" stroke-linecap="round"/>
<line x1="175" y1="52.0822" x2="162.973" y2="52.0822" stroke="#7216F4" stroke-width="2" stroke-linecap="round"/>
<path d="M6.942 159.54H10.582L17.368 178H13.676L11.96 173.398H5.512L3.822 178H0.13L6.942 159.54ZM11.31 170.876L8.762 163.258L6.11 170.876H11.31ZM18.9526 159.02H22.4366V173.632C22.4366 174.273 22.5406 174.698 22.7486 174.906C22.9566 175.114 23.2426 175.218 23.6066 175.218C23.8839 175.218 24.1699 175.183 24.4646 175.114C24.7592 175.045 25.0192 174.958 25.2446 174.854L25.7126 177.506C25.2446 177.731 24.6986 177.905 24.0746 178.026C23.4506 178.147 22.8872 178.208 22.3846 178.208C21.2926 178.208 20.4432 177.922 19.8366 177.35C19.2472 176.761 18.9526 175.929 18.9526 174.854V159.02ZM35.3945 178.26C34.3199 178.26 33.3839 178.017 32.5865 177.532C31.7892 177.047 31.1652 176.405 30.7145 175.608V183.538H27.2305V164.376H30.2725V166.716C30.7752 165.919 31.4252 165.295 32.2225 164.844C33.0372 164.376 33.9559 164.142 34.9785 164.142C36.2092 164.142 37.3012 164.463 38.2545 165.104C39.2079 165.728 39.9619 166.577 40.5165 167.652C41.0712 168.709 41.3485 169.879 41.3485 171.162C41.3485 172.497 41.0885 173.701 40.5685 174.776C40.0659 175.833 39.3639 176.683 38.4625 177.324C37.5785 177.948 36.5559 178.26 35.3945 178.26ZM34.2245 175.296C34.9352 175.296 35.5505 175.105 36.0705 174.724C36.6079 174.325 37.0239 173.814 37.3185 173.19C37.6305 172.549 37.7865 171.873 37.7865 171.162C37.7865 170.399 37.6219 169.715 37.2925 169.108C36.9632 168.484 36.5125 167.999 35.9405 167.652C35.3859 167.288 34.7445 167.106 34.0165 167.106C33.3579 167.106 32.6992 167.323 32.0405 167.756C31.3819 168.189 30.9399 168.735 30.7145 169.394V172.592C31.0265 173.355 31.5032 173.996 32.1445 174.516C32.7859 175.036 33.4792 175.296 34.2245 175.296ZM56.371 178H52.887V170.356C52.887 169.299 52.679 168.51 52.263 167.99C51.8644 167.47 51.3097 167.21 50.599 167.21C50.1657 167.21 49.715 167.331 49.247 167.574C48.7964 167.817 48.3804 168.155 47.999 168.588C47.635 169.004 47.3664 169.489 47.193 170.044V178H43.709V159.02H47.193V166.898C47.6957 166.031 48.3804 165.355 49.247 164.87C50.1137 164.385 51.0584 164.142 52.081 164.142C53.2424 164.142 54.135 164.402 54.759 164.922C55.383 165.442 55.8077 166.109 56.033 166.924C56.2584 167.739 56.371 168.597 56.371 169.498V178ZM58.4645 173.97C58.4645 173.086 58.7071 172.315 59.1925 171.656C59.6951 170.98 60.3885 170.46 61.2725 170.096C62.1565 169.732 63.1705 169.55 64.3145 169.55C64.8865 169.55 65.4671 169.602 66.0565 169.706C66.6458 169.793 67.1571 169.923 67.5905 170.096V169.368C67.5905 168.501 67.3305 167.834 66.8105 167.366C66.3078 166.898 65.5538 166.664 64.5485 166.664C63.8031 166.664 63.0925 166.794 62.4165 167.054C61.7405 167.314 61.0298 167.695 60.2845 168.198L59.1665 165.91C60.0678 165.321 60.9865 164.879 61.9225 164.584C62.8758 164.289 63.8725 164.142 64.9125 164.142C66.8538 164.142 68.3618 164.627 69.4365 165.598C70.5285 166.569 71.0745 167.955 71.0745 169.758V174.1C71.0745 174.481 71.1351 174.75 71.2565 174.906C71.3778 175.045 71.5945 175.131 71.9065 175.166V178C71.5945 178.069 71.3085 178.113 71.0485 178.13C70.8058 178.165 70.5978 178.182 70.4245 178.182C69.7311 178.182 69.2025 178.026 68.8385 177.714C68.4745 177.402 68.2578 177.021 68.1885 176.57L68.1105 175.868C67.5038 176.648 66.7585 177.246 65.8745 177.662C65.0078 178.061 64.1151 178.26 63.1965 178.26C62.2778 178.26 61.4631 178.078 60.7525 177.714C60.0418 177.333 59.4785 176.821 59.0625 176.18C58.6638 175.521 58.4645 174.785 58.4645 173.97ZM66.9405 174.672C67.3738 174.256 67.5905 173.857 67.5905 173.476V172.098C66.6891 171.734 65.7791 171.552 64.8605 171.552C63.9418 171.552 63.1965 171.751 62.6245 172.15C62.0525 172.531 61.7665 173.043 61.7665 173.684C61.7665 174.204 61.9745 174.672 62.3905 175.088C62.8065 175.504 63.4045 175.712 64.1845 175.712C64.7045 175.712 65.2071 175.617 65.6925 175.426C66.1951 175.235 66.6111 174.984 66.9405 174.672ZM80.9142 178V159.54H87.6222C89.6329 159.54 91.3142 159.956 92.6662 160.788C94.0182 161.603 95.0322 162.712 95.7082 164.116C96.3842 165.503 96.7222 167.045 96.7222 168.744C96.7222 170.616 96.3496 172.245 95.6042 173.632C94.8589 175.019 93.8016 176.093 92.4322 176.856C91.0629 177.619 89.4596 178 87.6222 178H80.9142ZM93.1082 168.744C93.1082 167.548 92.8916 166.499 92.4582 165.598C92.0249 164.679 91.4009 163.969 90.5862 163.466C89.7716 162.946 88.7836 162.686 87.6222 162.686H84.5022V174.854H87.6222C88.8009 174.854 89.7976 174.594 90.6122 174.074C91.4269 173.537 92.0422 172.809 92.4582 171.89C92.8916 170.954 93.1082 169.905 93.1082 168.744ZM105.506 178.26C104.032 178.26 102.758 177.939 101.684 177.298C100.626 176.657 99.8029 175.807 99.2136 174.75C98.6242 173.675 98.3296 172.514 98.3296 171.266C98.3296 169.983 98.6156 168.805 99.1876 167.73C99.7769 166.638 100.609 165.771 101.684 165.13C102.758 164.471 104.041 164.142 105.532 164.142C107.022 164.142 108.296 164.471 109.354 165.13C110.411 165.771 111.217 166.629 111.772 167.704C112.344 168.761 112.63 169.905 112.63 171.136C112.63 171.587 112.604 171.977 112.552 172.306H102.022C102.108 173.363 102.498 174.195 103.192 174.802C103.902 175.409 104.717 175.712 105.636 175.712C106.329 175.712 106.979 175.547 107.586 175.218C108.21 174.871 108.634 174.421 108.86 173.866L111.85 174.698C111.347 175.738 110.541 176.596 109.432 177.272C108.322 177.931 107.014 178.26 105.506 178.26ZM101.944 170.096H109.068C108.964 169.073 108.574 168.25 107.898 167.626C107.239 166.985 106.433 166.664 105.48 166.664C104.544 166.664 103.738 166.985 103.062 167.626C102.403 168.25 102.03 169.073 101.944 170.096ZM118.037 178L113.019 164.376H116.633L120.065 174.828L123.523 164.376H126.825L121.833 178H118.037ZM134.527 178.26C133.054 178.26 131.78 177.939 130.705 177.298C129.648 176.657 128.824 175.807 128.235 174.75C127.646 173.675 127.351 172.514 127.351 171.266C127.351 169.983 127.637 168.805 128.209 167.73C128.798 166.638 129.63 165.771 130.705 165.13C131.78 164.471 133.062 164.142 134.553 164.142C136.044 164.142 137.318 164.471 138.375 165.13C139.432 165.771 140.238 166.629 140.793 167.704C141.365 168.761 141.651 169.905 141.651 171.136C141.651 171.587 141.625 171.977 141.573 172.306H131.043C131.13 173.363 131.52 174.195 132.213 174.802C132.924 175.409 133.738 175.712 134.657 175.712C135.35 175.712 136 175.547 136.607 175.218C137.231 174.871 137.656 174.421 137.881 173.866L140.871 174.698C140.368 175.738 139.562 176.596 138.453 177.272C137.344 177.931 136.035 178.26 134.527 178.26ZM130.965 170.096H138.089C137.985 169.073 137.595 168.25 136.919 167.626C136.26 166.985 135.454 166.664 134.501 166.664C133.565 166.664 132.759 166.985 132.083 167.626C131.424 168.25 131.052 169.073 130.965 170.096ZM143.748 159.02H147.232V173.632C147.232 174.273 147.336 174.698 147.544 174.906C147.752 175.114 148.038 175.218 148.402 175.218C148.679 175.218 148.965 175.183 149.26 175.114C149.554 175.045 149.814 174.958 150.04 174.854L150.508 177.506C150.04 177.731 149.494 177.905 148.869 178.026C148.246 178.147 147.682 178.208 147.18 178.208C146.088 178.208 145.238 177.922 144.632 177.35C144.042 176.761 143.748 175.929 143.748 174.854V159.02ZM158.317 178.26C156.827 178.26 155.544 177.939 154.469 177.298C153.412 176.639 152.597 175.773 152.025 174.698C151.453 173.623 151.167 172.462 151.167 171.214C151.167 169.949 151.453 168.779 152.025 167.704C152.615 166.629 153.438 165.771 154.495 165.13C155.57 164.471 156.844 164.142 158.317 164.142C159.791 164.142 161.056 164.471 162.113 165.13C163.188 165.771 164.011 166.629 164.583 167.704C165.155 168.779 165.441 169.949 165.441 171.214C165.441 172.462 165.155 173.623 164.583 174.698C164.011 175.773 163.188 176.639 162.113 177.298C161.056 177.939 159.791 178.26 158.317 178.26ZM154.755 171.214C154.755 172.011 154.911 172.722 155.223 173.346C155.535 173.953 155.96 174.429 156.497 174.776C157.035 175.123 157.641 175.296 158.317 175.296C158.976 175.296 159.574 175.123 160.111 174.776C160.649 174.412 161.073 173.927 161.385 173.32C161.715 172.696 161.879 171.985 161.879 171.188C161.879 170.408 161.715 169.715 161.385 169.108C161.073 168.484 160.649 167.999 160.111 167.652C159.574 167.288 158.976 167.106 158.317 167.106C157.641 167.106 157.035 167.288 156.497 167.652C155.96 167.999 155.535 168.484 155.223 169.108C154.911 169.715 154.755 170.417 154.755 171.214ZM175.957 178.26C174.882 178.26 173.946 178.017 173.149 177.532C172.352 177.047 171.728 176.405 171.277 175.608V183.538H167.793V164.376H170.835V166.716C171.338 165.919 171.988 165.295 172.785 164.844C173.6 164.376 174.518 164.142 175.541 164.142C176.772 164.142 177.864 164.463 178.817 165.104C179.77 165.728 180.524 166.577 181.079 167.652C181.634 168.709 181.911 169.879 181.911 171.162C181.911 172.497 181.651 173.701 181.131 174.776C180.628 175.833 179.926 176.683 179.025 177.324C178.141 177.948 177.118 178.26 175.957 178.26ZM174.787 175.296C175.498 175.296 176.113 175.105 176.633 174.724C177.17 174.325 177.586 173.814 177.881 173.19C178.193 172.549 178.349 171.873 178.349 171.162C178.349 170.399 178.184 169.715 177.855 169.108C177.526 168.484 177.075 167.999 176.503 167.652C175.948 167.288 175.307 167.106 174.579 167.106C173.92 167.106 173.262 167.323 172.603 167.756C171.944 168.189 171.502 168.735 171.277 169.394V172.592C171.589 173.355 172.066 173.996 172.707 174.516C173.348 175.036 174.042 175.296 174.787 175.296ZM190.59 178.26C189.116 178.26 187.842 177.939 186.768 177.298C185.71 176.657 184.887 175.807 184.298 174.75C183.708 173.675 183.414 172.514 183.414 171.266C183.414 169.983 183.7 168.805 184.272 167.73C184.861 166.638 185.693 165.771 186.768 165.13C187.842 164.471 189.125 164.142 190.616 164.142C192.106 164.142 193.38 164.471 194.438 165.13C195.495 165.771 196.301 166.629 196.856 167.704C197.428 168.761 197.714 169.905 197.714 171.136C197.714 171.587 197.688 171.977 197.636 172.306H187.106C187.192 173.363 187.582 174.195 188.276 174.802C188.986 175.409 189.801 175.712 190.72 175.712C191.413 175.712 192.063 175.547 192.67 175.218C193.294 174.871 193.718 174.421 193.944 173.866L196.934 174.698C196.431 175.738 195.625 176.596 194.516 177.272C193.406 177.931 192.098 178.26 190.59 178.26ZM187.028 170.096H194.152C194.048 169.073 193.658 168.25 192.982 167.626C192.323 166.985 191.517 166.664 190.564 166.664C189.628 166.664 188.822 166.985 188.146 167.626C187.487 168.25 187.114 169.073 187.028 170.096ZM207.948 167.392C206.891 167.392 205.946 167.6 205.114 168.016C204.282 168.415 203.684 168.995 203.32 169.758V178H199.836V164.376H203.034V167.288C203.502 166.352 204.109 165.615 204.854 165.078C205.617 164.541 206.414 164.246 207.246 164.194C207.61 164.194 207.844 164.203 207.948 164.22V167.392ZM214.909 178.26C213.747 178.26 212.638 178.069 211.581 177.688C210.523 177.307 209.613 176.743 208.851 175.998L210.099 173.736C210.913 174.395 211.711 174.88 212.491 175.192C213.271 175.504 214.033 175.66 214.779 175.66C215.455 175.66 215.992 175.539 216.391 175.296C216.807 175.053 217.015 174.689 217.015 174.204C217.015 173.701 216.763 173.363 216.261 173.19C215.758 172.999 215.056 172.765 214.155 172.488C213.149 172.176 212.309 171.855 211.633 171.526C210.957 171.197 210.445 170.798 210.099 170.33C209.769 169.862 209.605 169.255 209.605 168.51C209.605 167.175 210.107 166.109 211.113 165.312C212.118 164.515 213.453 164.116 215.117 164.116C216.087 164.116 217.006 164.272 217.873 164.584C218.739 164.879 219.528 165.364 220.239 166.04L218.835 168.25C217.5 167.21 216.209 166.69 214.961 166.69C214.406 166.69 213.912 166.794 213.479 167.002C213.063 167.21 212.855 167.574 212.855 168.094C212.855 168.579 213.054 168.926 213.453 169.134C213.869 169.342 214.493 169.567 215.325 169.81C216.399 170.139 217.309 170.46 218.055 170.772C218.817 171.084 219.389 171.483 219.771 171.968C220.169 172.453 220.369 173.112 220.369 173.944C220.369 175.296 219.875 176.353 218.887 177.116C217.899 177.879 216.573 178.26 214.909 178.26Z" fill="#F9E1CF"/>
</svg>
