<svg width="156" height="185" viewBox="0 0 156 185" fill="none" xmlns="http://www.w3.org/2000/svg">
<path d="M2.9665 161V141.12H10.3865C12.5705 141.12 14.3905 141.568 15.8465 142.464C17.3212 143.341 18.4318 144.536 19.1785 146.048C19.9252 147.541 20.2985 149.203 20.2985 151.032C20.2985 153.048 19.8878 154.803 19.0665 156.296C18.2452 157.789 17.0878 158.947 15.5945 159.768C14.1198 160.589 12.3838 161 10.3865 161H2.9665ZM15.6225 151.032C15.6225 149.277 15.1652 147.859 14.2505 146.776C13.3358 145.693 12.0478 145.152 10.3865 145.152H7.5585V156.968H10.3865C11.5065 156.968 12.4585 156.716 13.2425 156.212C14.0265 155.689 14.6145 154.98 15.0065 154.084C15.4172 153.188 15.6225 152.171 15.6225 151.032ZM29.6735 161.28C28.0121 161.28 26.5935 160.935 25.4175 160.244C24.2415 159.553 23.3361 158.639 22.7015 157.5C22.0855 156.361 21.7775 155.129 21.7775 153.804C21.7775 152.385 22.0855 151.088 22.7015 149.912C23.3175 148.736 24.2135 147.793 25.3895 147.084C26.5655 146.375 27.9935 146.02 29.6735 146.02C31.3348 146.02 32.7535 146.375 33.9295 147.084C35.1055 147.793 35.9921 148.727 36.5895 149.884C37.2055 151.041 37.5135 152.283 37.5135 153.608C37.5135 154.149 37.4761 154.625 37.4015 155.036H26.5375C26.6121 156.025 26.9668 156.781 27.6015 157.304C28.2548 157.808 28.9921 158.06 29.8135 158.06C30.4668 158.06 31.0921 157.901 31.6895 157.584C32.2868 157.267 32.6975 156.837 32.9215 156.296L36.7295 157.36C36.1508 158.517 35.2455 159.46 34.0135 160.188C32.8001 160.916 31.3535 161.28 29.6735 161.28ZM26.4255 152.292H32.8095C32.7161 151.359 32.3708 150.621 31.7735 150.08C31.1948 149.52 30.4761 149.24 29.6175 149.24C28.7588 149.24 28.0308 149.52 27.4335 150.08C26.8548 150.64 26.5188 151.377 26.4255 152.292ZM42.9144 161L37.7064 146.3H42.3264L45.5464 156.968L48.7664 146.3H52.9664L47.7864 161H42.9144ZM61.2008 161.28C59.5395 161.28 58.1208 160.935 56.9448 160.244C55.7688 159.553 54.8635 158.639 54.2288 157.5C53.6128 156.361 53.3048 155.129 53.3048 153.804C53.3048 152.385 53.6128 151.088 54.2288 149.912C54.8448 148.736 55.7408 147.793 56.9168 147.084C58.0928 146.375 59.5208 146.02 61.2008 146.02C62.8621 146.02 64.2808 146.375 65.4568 147.084C66.6328 147.793 67.5195 148.727 68.1168 149.884C68.7328 151.041 69.0408 152.283 69.0408 153.608C69.0408 154.149 69.0035 154.625 68.9288 155.036H58.0648C58.1395 156.025 58.4941 156.781 59.1288 157.304C59.7821 157.808 60.5195 158.06 61.3408 158.06C61.9941 158.06 62.6195 157.901 63.2168 157.584C63.8141 157.267 64.2248 156.837 64.4488 156.296L68.2568 157.36C67.6781 158.517 66.7728 159.46 65.5408 160.188C64.3275 160.916 62.8808 161.28 61.2008 161.28ZM57.9528 152.292H64.3368C64.2435 151.359 63.8981 150.621 63.3008 150.08C62.7221 149.52 62.0035 149.24 61.1448 149.24C60.2861 149.24 59.5581 149.52 58.9608 150.08C58.3821 150.64 58.0461 151.377 57.9528 152.292ZM71.0153 140.56H75.4953V155.764C75.4953 156.38 75.6073 156.819 75.8313 157.08C76.0553 157.341 76.3726 157.472 76.7833 157.472C77.0633 157.472 77.3433 157.435 77.6233 157.36C77.9219 157.267 78.1833 157.164 78.4073 157.052L78.9953 160.412C78.4353 160.673 77.7913 160.879 77.0633 161.028C76.3353 161.177 75.6539 161.252 75.0193 161.252C73.7499 161.252 72.7606 160.916 72.0513 160.244C71.3606 159.572 71.0153 158.601 71.0153 157.332V140.56ZM87.4502 161.28C85.7702 161.28 84.3422 160.925 83.1662 160.216C82.0088 159.507 81.1222 158.573 80.5062 157.416C79.8902 156.259 79.5822 155.008 79.5822 153.664C79.5822 152.301 79.8902 151.041 80.5062 149.884C81.1222 148.727 82.0182 147.793 83.1942 147.084C84.3702 146.375 85.7888 146.02 87.4502 146.02C89.1115 146.02 90.5302 146.375 91.7062 147.084C92.8822 147.793 93.7782 148.727 94.3942 149.884C95.0102 151.041 95.3182 152.301 95.3182 153.664C95.3182 155.008 95.0102 156.259 94.3942 157.416C93.7782 158.573 92.8822 159.507 91.7062 160.216C90.5302 160.925 89.1115 161.28 87.4502 161.28ZM84.1742 153.664C84.1742 154.803 84.4822 155.727 85.0982 156.436C85.7328 157.145 86.5168 157.5 87.4502 157.5C88.3648 157.5 89.1302 157.145 89.7462 156.436C90.3808 155.727 90.6982 154.803 90.6982 153.664C90.6982 152.525 90.3808 151.601 89.7462 150.892C89.1302 150.183 88.3648 149.828 87.4502 149.828C86.5168 149.828 85.7328 150.183 85.0982 150.892C84.4822 151.601 84.1742 152.525 84.1742 153.664ZM106.836 161.28C105.735 161.28 104.764 161.047 103.924 160.58C103.103 160.095 102.468 159.441 102.02 158.62V166.964H97.54V146.3H101.432V148.68C101.973 147.84 102.655 147.187 103.476 146.72C104.297 146.253 105.259 146.02 106.36 146.02C107.667 146.02 108.833 146.365 109.86 147.056C110.905 147.728 111.717 148.633 112.296 149.772C112.893 150.911 113.192 152.189 113.192 153.608C113.192 155.064 112.921 156.371 112.38 157.528C111.839 158.685 111.083 159.6 110.112 160.272C109.16 160.944 108.068 161.28 106.836 161.28ZM105.324 157.5C105.959 157.5 106.528 157.323 107.032 156.968C107.536 156.595 107.928 156.119 108.208 155.54C108.488 154.943 108.628 154.289 108.628 153.58C108.628 152.497 108.292 151.601 107.62 150.892C106.967 150.183 106.127 149.828 105.1 149.828C104.484 149.828 103.887 150.015 103.308 150.388C102.748 150.743 102.319 151.228 102.02 151.844V154.868C102.319 155.615 102.767 156.24 103.364 156.744C103.98 157.248 104.633 157.5 105.324 157.5ZM122.478 161.28C120.817 161.28 119.398 160.935 118.222 160.244C117.046 159.553 116.141 158.639 115.506 157.5C114.89 156.361 114.582 155.129 114.582 153.804C114.582 152.385 114.89 151.088 115.506 149.912C116.122 148.736 117.018 147.793 118.194 147.084C119.37 146.375 120.798 146.02 122.478 146.02C124.139 146.02 125.558 146.375 126.734 147.084C127.91 147.793 128.797 148.727 129.394 149.884C130.01 151.041 130.318 152.283 130.318 153.608C130.318 154.149 130.281 154.625 130.206 155.036H119.342C119.417 156.025 119.771 156.781 120.406 157.304C121.059 157.808 121.797 158.06 122.618 158.06C123.271 158.06 123.897 157.901 124.494 157.584C125.091 157.267 125.502 156.837 125.726 156.296L129.534 157.36C128.955 158.517 128.05 159.46 126.818 160.188C125.605 160.916 124.158 161.28 122.478 161.28ZM119.23 152.292H125.614C125.521 151.359 125.175 150.621 124.578 150.08C123.999 149.52 123.281 149.24 122.422 149.24C121.563 149.24 120.835 149.52 120.238 150.08C119.659 150.64 119.323 151.377 119.23 152.292ZM141.673 150.136C140.59 150.155 139.61 150.332 138.733 150.668C137.855 151.004 137.221 151.508 136.829 152.18V161H132.349V146.3H136.465V149.268C136.969 148.279 137.622 147.504 138.425 146.944C139.227 146.384 140.067 146.095 140.945 146.076C141.318 146.076 141.561 146.085 141.673 146.104V150.136ZM149.188 161.28C147.918 161.28 146.686 161.075 145.492 160.664C144.316 160.235 143.317 159.628 142.496 158.844L144.036 156.016C145.846 157.341 147.517 158.004 149.048 158.004C149.626 158.004 150.074 157.911 150.392 157.724C150.709 157.537 150.868 157.248 150.868 156.856C150.868 156.445 150.653 156.156 150.224 155.988C149.794 155.801 149.16 155.587 148.32 155.344C147.2 154.971 146.266 154.607 145.52 154.252C144.773 153.897 144.213 153.468 143.84 152.964C143.466 152.46 143.28 151.788 143.28 150.948C143.28 149.473 143.83 148.288 144.932 147.392C146.033 146.477 147.526 146.02 149.412 146.02C150.42 146.02 151.4 146.179 152.352 146.496C153.322 146.813 154.228 147.345 155.068 148.092L153.332 150.892C152.492 150.313 151.745 149.893 151.092 149.632C150.438 149.371 149.804 149.24 149.188 149.24C148.702 149.24 148.292 149.333 147.956 149.52C147.62 149.688 147.452 149.987 147.452 150.416C147.452 150.827 147.638 151.135 148.012 151.34C148.385 151.527 148.964 151.732 149.748 151.956C150.942 152.311 151.941 152.675 152.744 153.048C153.565 153.403 154.172 153.851 154.564 154.392C154.974 154.915 155.18 155.615 155.18 156.492C155.18 157.985 154.638 159.161 153.556 160.02C152.473 160.86 151.017 161.28 149.188 161.28Z" fill="#F9E1CF"/>
<rect x="27.2739" y="23.274" width="99.4521" height="99.4521" rx="18" stroke="#7216F4" stroke-width="4"/>
<rect x="48.3152" y="44.3151" width="59.1233" height="59.1233" stroke="#7216F4" stroke-width="4"/>
<line x1="25.0273" y1="44.3151" x2="14.9999" y2="44.3151" stroke="#7216F4" stroke-width="4" stroke-linecap="round"/>
<line x1="25.0273" y1="105.685" x2="14.9999" y2="105.685" stroke="#7216F4" stroke-width="4" stroke-linecap="round"/>
<line x1="25.0273" y1="96.9178" x2="14.9999" y2="96.9178" stroke="#7216F4" stroke-width="4" stroke-linecap="round"/>
<line x1="25.0273" y1="88.1507" x2="14.9999" y2="88.1507" stroke="#7216F4" stroke-width="4" stroke-linecap="round"/>
<line x1="25.0273" y1="79.3836" x2="14.9999" y2="79.3836" stroke="#7216F4" stroke-width="4" stroke-linecap="round"/>
<line x1="25.0273" y1="70.6164" x2="14.9999" y2="70.6164" stroke="#7216F4" stroke-width="4" stroke-linecap="round"/>
<line x1="25.0273" y1="61.8493" x2="14.9999" y2="61.8493" stroke="#7216F4" stroke-width="4" stroke-linecap="round"/>
<line x1="25.0273" y1="53.0822" x2="14.9999" y2="53.0822" stroke="#7216F4" stroke-width="4" stroke-linecap="round"/>
<line x1="48.3152" y1="124.973" x2="48.3152" y2="135" stroke="#7216F4" stroke-width="4" stroke-linecap="round"/>
<line x1="109.685" y1="124.973" x2="109.685" y2="135" stroke="#7216F4" stroke-width="4" stroke-linecap="round"/>
<line x1="100.918" y1="124.973" x2="100.918" y2="135" stroke="#7216F4" stroke-width="4" stroke-linecap="round"/>
<line x1="92.1506" y1="124.973" x2="92.1506" y2="135" stroke="#7216F4" stroke-width="4" stroke-linecap="round"/>
<line x1="83.3835" y1="124.973" x2="83.3835" y2="135" stroke="#7216F4" stroke-width="4" stroke-linecap="round"/>
<line x1="74.6165" y1="124.973" x2="74.6165" y2="135" stroke="#7216F4" stroke-width="4" stroke-linecap="round"/>
<line x1="65.8494" y1="124.973" x2="65.8494" y2="135" stroke="#7216F4" stroke-width="4" stroke-linecap="round"/>
<line x1="57.0823" y1="124.973" x2="57.0823" y2="135" stroke="#7216F4" stroke-width="4" stroke-linecap="round"/>
<line x1="48.3152" y1="11" x2="48.3152" y2="21.0274" stroke="#7216F4" stroke-width="4" stroke-linecap="round"/>
<line x1="109.685" y1="11" x2="109.685" y2="21.0274" stroke="#7216F4" stroke-width="4" stroke-linecap="round"/>
<line x1="100.918" y1="11" x2="100.918" y2="21.0274" stroke="#7216F4" stroke-width="4" stroke-linecap="round"/>
<line x1="92.1506" y1="11" x2="92.1506" y2="21.0274" stroke="#7216F4" stroke-width="4" stroke-linecap="round"/>
<line x1="83.3835" y1="11" x2="83.3835" y2="21.0274" stroke="#7216F4" stroke-width="4" stroke-linecap="round"/>
<line x1="74.6165" y1="11" x2="74.6165" y2="21.0274" stroke="#7216F4" stroke-width="4" stroke-linecap="round"/>
<line x1="65.8494" y1="11" x2="65.8494" y2="21.0274" stroke="#7216F4" stroke-width="4" stroke-linecap="round"/>
<line x1="57.0823" y1="11" x2="57.0823" y2="21.0274" stroke="#7216F4" stroke-width="4" stroke-linecap="round"/>
<line x1="139" y1="44.3151" x2="128.973" y2="44.3151" stroke="#7216F4" stroke-width="4" stroke-linecap="round"/>
<line x1="139" y1="105.685" x2="128.973" y2="105.685" stroke="#7216F4" stroke-width="4" stroke-linecap="round"/>
<line x1="139" y1="96.9178" x2="128.973" y2="96.9178" stroke="#7216F4" stroke-width="4" stroke-linecap="round"/>
<line x1="139" y1="88.1507" x2="128.973" y2="88.1507" stroke="#7216F4" stroke-width="4" stroke-linecap="round"/>
<line x1="139" y1="79.3836" x2="128.973" y2="79.3836" stroke="#7216F4" stroke-width="4" stroke-linecap="round"/>
<line x1="139" y1="70.6164" x2="128.973" y2="70.6164" stroke="#7216F4" stroke-width="4" stroke-linecap="round"/>
<line x1="139" y1="61.8493" x2="128.973" y2="61.8493" stroke="#7216F4" stroke-width="4" stroke-linecap="round"/>
<line x1="139" y1="53.0822" x2="128.973" y2="53.0822" stroke="#7216F4" stroke-width="4" stroke-linecap="round"/>
<path d="M41.544 60.28H46.024L54.376 83H49.832L47.72 77.336H39.784L37.704 83H33.16L41.544 60.28ZM46.92 74.232L43.784 64.856L40.52 74.232H46.92ZM56.3263 59.64H60.6143V77.624C60.6143 78.4133 60.7423 78.936 60.9983 79.192C61.2543 79.448 61.6063 79.576 62.0543 79.576C62.3956 79.576 62.7476 79.5333 63.1103 79.448C63.4729 79.3627 63.7929 79.256 64.0703 79.128L64.6463 82.392C64.0703 82.6693 63.3983 82.8827 62.6302 83.032C61.8623 83.1813 61.1689 83.256 60.5503 83.256C59.2063 83.256 58.1609 82.904 57.4143 82.2C56.6889 81.4747 56.3263 80.4507 56.3263 79.128V59.64ZM76.5625 83.32C75.2398 83.32 74.0878 83.0213 73.1065 82.424C72.1252 81.8267 71.3572 81.0373 70.8025 80.056V89.816H66.5145V66.232H70.2585V69.112C70.8772 68.1307 71.6772 67.3627 72.6585 66.808C73.6612 66.232 74.7918 65.944 76.0505 65.944C77.5652 65.944 78.9092 66.3387 80.0825 67.128C81.2558 67.896 82.1838 68.9413 82.8665 70.264C83.5492 71.5653 83.8905 73.0053 83.8905 74.584C83.8905 76.2267 83.5705 77.7093 82.9305 79.032C82.3118 80.3333 81.4478 81.3787 80.3385 82.168C79.2505 82.936 77.9918 83.32 76.5625 83.32ZM75.1225 79.672C75.9972 79.672 76.7545 79.4373 77.3945 78.968C78.0558 78.4773 78.5678 77.848 78.9305 77.08C79.3145 76.2907 79.5065 75.4587 79.5065 74.584C79.5065 73.6453 79.3038 72.8027 78.8985 72.056C78.4932 71.288 77.9385 70.6907 77.2345 70.264C76.5518 69.816 75.7625 69.592 74.8665 69.592C74.0558 69.592 73.2452 69.8587 72.4345 70.392C71.6238 70.9253 71.0798 71.5973 70.8025 72.408V76.344C71.1865 77.2827 71.7732 78.072 72.5625 78.712C73.3518 79.352 74.2052 79.672 75.1225 79.672ZM102.38 83H98.0918V73.592C98.0918 72.2907 97.8358 71.32 97.3238 70.68C96.8331 70.04 96.1504 69.72 95.2758 69.72C94.7424 69.72 94.1878 69.8693 93.6118 70.168C93.0571 70.4667 92.5451 70.8827 92.0758 71.416C91.6278 71.928 91.2971 72.5253 91.0838 73.208V83H86.7958V59.64H91.0838V69.336C91.7024 68.2693 92.5451 67.4373 93.6118 66.84C94.6784 66.2427 95.8411 65.944 97.0998 65.944C98.5291 65.944 99.6278 66.264 100.396 66.904C101.164 67.544 101.686 68.3653 101.964 69.368C102.241 70.3707 102.38 71.4267 102.38 72.536V83ZM104.956 78.04C104.956 76.952 105.255 76.0027 105.852 75.192C106.471 74.36 107.324 73.72 108.412 73.272C109.5 72.824 110.748 72.6 112.156 72.6C112.86 72.6 113.575 72.664 114.3 72.792C115.026 72.8987 115.655 73.0587 116.188 73.272V72.376C116.188 71.3093 115.868 70.488 115.228 69.912C114.61 69.336 113.682 69.048 112.444 69.048C111.527 69.048 110.652 69.208 109.82 69.528C108.988 69.848 108.114 70.3173 107.196 70.936L105.82 68.12C106.93 67.3947 108.06 66.8507 109.212 66.488C110.386 66.1253 111.612 65.944 112.892 65.944C115.282 65.944 117.138 66.5413 118.46 67.736C119.804 68.9307 120.476 70.6373 120.476 72.856V78.2C120.476 78.6693 120.551 79 120.7 79.192C120.85 79.3627 121.116 79.4693 121.5 79.512V83C121.116 83.0853 120.764 83.1387 120.444 83.16C120.146 83.2027 119.89 83.224 119.676 83.224C118.823 83.224 118.172 83.032 117.724 82.648C117.276 82.264 117.01 81.7947 116.924 81.24L116.828 80.376C116.082 81.336 115.164 82.072 114.076 82.584C113.01 83.0747 111.911 83.32 110.78 83.32C109.65 83.32 108.647 83.096 107.772 82.648C106.898 82.1787 106.204 81.5493 105.692 80.76C105.202 79.9493 104.956 79.0427 104.956 78.04ZM115.388 78.904C115.922 78.392 116.188 77.9013 116.188 77.432V75.736C115.079 75.288 113.959 75.064 112.828 75.064C111.698 75.064 110.78 75.3093 110.076 75.8C109.372 76.2693 109.02 76.8987 109.02 77.688C109.02 78.328 109.276 78.904 109.788 79.416C110.3 79.928 111.036 80.184 111.996 80.184C112.636 80.184 113.255 80.0667 113.852 79.832C114.471 79.5973 114.983 79.288 115.388 78.904Z" fill="#F9E1CF"/>
</svg>
