<svg width="241" height="185" viewBox="0 0 241 185" fill="none" xmlns="http://www.w3.org/2000/svg">
<rect x="70.2739" y="23.274" width="99.4521" height="99.4521" rx="18" stroke="#7216F4" stroke-width="4"/>
<rect x="91.3152" y="44.3151" width="59.1233" height="59.1233" stroke="#7216F4" stroke-width="4"/>
<line x1="68.0273" y1="44.3151" x2="57.9999" y2="44.3151" stroke="#7216F4" stroke-width="4" stroke-linecap="round"/>
<line x1="68.0273" y1="105.685" x2="57.9999" y2="105.685" stroke="#7216F4" stroke-width="4" stroke-linecap="round"/>
<line x1="68.0273" y1="96.9178" x2="57.9999" y2="96.9178" stroke="#7216F4" stroke-width="4" stroke-linecap="round"/>
<line x1="68.0273" y1="88.1507" x2="57.9999" y2="88.1507" stroke="#7216F4" stroke-width="4" stroke-linecap="round"/>
<line x1="68.0273" y1="79.3836" x2="57.9999" y2="79.3836" stroke="#7216F4" stroke-width="4" stroke-linecap="round"/>
<line x1="68.0273" y1="70.6164" x2="57.9999" y2="70.6164" stroke="#7216F4" stroke-width="4" stroke-linecap="round"/>
<line x1="68.0273" y1="61.8493" x2="57.9999" y2="61.8493" stroke="#7216F4" stroke-width="4" stroke-linecap="round"/>
<line x1="68.0273" y1="53.0822" x2="57.9999" y2="53.0822" stroke="#7216F4" stroke-width="4" stroke-linecap="round"/>
<line x1="91.3152" y1="124.973" x2="91.3152" y2="135" stroke="#7216F4" stroke-width="4" stroke-linecap="round"/>
<line x1="152.685" y1="124.973" x2="152.685" y2="135" stroke="#7216F4" stroke-width="4" stroke-linecap="round"/>
<line x1="143.918" y1="124.973" x2="143.918" y2="135" stroke="#7216F4" stroke-width="4" stroke-linecap="round"/>
<line x1="135.151" y1="124.973" x2="135.151" y2="135" stroke="#7216F4" stroke-width="4" stroke-linecap="round"/>
<line x1="126.384" y1="124.973" x2="126.384" y2="135" stroke="#7216F4" stroke-width="4" stroke-linecap="round"/>
<line x1="117.616" y1="124.973" x2="117.616" y2="135" stroke="#7216F4" stroke-width="4" stroke-linecap="round"/>
<line x1="108.849" y1="124.973" x2="108.849" y2="135" stroke="#7216F4" stroke-width="4" stroke-linecap="round"/>
<line x1="100.082" y1="124.973" x2="100.082" y2="135" stroke="#7216F4" stroke-width="4" stroke-linecap="round"/>
<line x1="91.3152" y1="11" x2="91.3152" y2="21.0274" stroke="#7216F4" stroke-width="4" stroke-linecap="round"/>
<line x1="152.685" y1="11" x2="152.685" y2="21.0274" stroke="#7216F4" stroke-width="4" stroke-linecap="round"/>
<line x1="143.918" y1="11" x2="143.918" y2="21.0274" stroke="#7216F4" stroke-width="4" stroke-linecap="round"/>
<line x1="135.151" y1="11" x2="135.151" y2="21.0274" stroke="#7216F4" stroke-width="4" stroke-linecap="round"/>
<line x1="126.384" y1="11" x2="126.384" y2="21.0274" stroke="#7216F4" stroke-width="4" stroke-linecap="round"/>
<line x1="117.616" y1="11" x2="117.616" y2="21.0274" stroke="#7216F4" stroke-width="4" stroke-linecap="round"/>
<line x1="108.849" y1="11" x2="108.849" y2="21.0274" stroke="#7216F4" stroke-width="4" stroke-linecap="round"/>
<line x1="100.082" y1="11" x2="100.082" y2="21.0274" stroke="#7216F4" stroke-width="4" stroke-linecap="round"/>
<line x1="182" y1="44.3151" x2="171.973" y2="44.3151" stroke="#7216F4" stroke-width="4" stroke-linecap="round"/>
<line x1="182" y1="105.685" x2="171.973" y2="105.685" stroke="#7216F4" stroke-width="4" stroke-linecap="round"/>
<line x1="182" y1="96.9178" x2="171.973" y2="96.9178" stroke="#7216F4" stroke-width="4" stroke-linecap="round"/>
<line x1="182" y1="88.1507" x2="171.973" y2="88.1507" stroke="#7216F4" stroke-width="4" stroke-linecap="round"/>
<line x1="182" y1="79.3836" x2="171.973" y2="79.3836" stroke="#7216F4" stroke-width="4" stroke-linecap="round"/>
<line x1="182" y1="70.6164" x2="171.973" y2="70.6164" stroke="#7216F4" stroke-width="4" stroke-linecap="round"/>
<line x1="182" y1="61.8493" x2="171.973" y2="61.8493" stroke="#7216F4" stroke-width="4" stroke-linecap="round"/>
<line x1="182" y1="53.0822" x2="171.973" y2="53.0822" stroke="#7216F4" stroke-width="4" stroke-linecap="round"/>
<path d="M6.96678 159.12H11.9228L18.7548 179H14.0508L12.5108 174.548H6.32278L4.81078 179H0.106781L6.96678 159.12ZM11.7548 171.384L9.43078 163.74L7.05078 171.384H11.7548ZM20.1832 158.56H24.6632V173.764C24.6632 174.38 24.7752 174.819 24.9992 175.08C25.2232 175.341 25.5406 175.472 25.9512 175.472C26.2312 175.472 26.5112 175.435 26.7912 175.36C27.0899 175.267 27.3512 175.164 27.5752 175.052L28.1632 178.412C27.6032 178.673 26.9592 178.879 26.2312 179.028C25.5032 179.177 24.8219 179.252 24.1872 179.252C22.9179 179.252 21.9286 178.916 21.2192 178.244C20.5286 177.572 20.1832 176.601 20.1832 175.332V158.56ZM38.9141 179.28C37.8128 179.28 36.8421 179.047 36.0021 178.58C35.1808 178.095 34.5461 177.441 34.0981 176.62V184.964H29.6181V164.3H33.5101V166.68C34.0515 165.84 34.7328 165.187 35.5541 164.72C36.3755 164.253 37.3368 164.02 38.4381 164.02C39.7448 164.02 40.9115 164.365 41.9381 165.056C42.9835 165.728 43.7955 166.633 44.3741 167.772C44.9715 168.911 45.2701 170.189 45.2701 171.608C45.2701 173.064 44.9995 174.371 44.4581 175.528C43.9168 176.685 43.1608 177.6 42.1901 178.272C41.2381 178.944 40.1461 179.28 38.9141 179.28ZM37.4021 175.5C38.0368 175.5 38.6061 175.323 39.1101 174.968C39.6141 174.595 40.0061 174.119 40.2861 173.54C40.5661 172.943 40.7061 172.289 40.7061 171.58C40.7061 170.497 40.3701 169.601 39.6981 168.892C39.0448 168.183 38.2048 167.828 37.1781 167.828C36.5621 167.828 35.9648 168.015 35.3861 168.388C34.8261 168.743 34.3968 169.228 34.0981 169.844V172.868C34.3968 173.615 34.8448 174.24 35.4421 174.744C36.0581 175.248 36.7115 175.5 37.4021 175.5ZM61.6963 179H57.2163V170.74C57.2163 169.788 57.0203 169.088 56.6283 168.64C56.2549 168.192 55.7509 167.968 55.1163 167.968C54.5936 167.968 54.0056 168.211 53.3523 168.696C52.7176 169.163 52.2696 169.788 52.0083 170.572V179H47.5283V158.56H52.0083V166.764C52.5309 165.887 53.2403 165.215 54.1363 164.748C55.0323 164.263 56.0123 164.02 57.0763 164.02C58.0656 164.02 58.8683 164.188 59.4843 164.524C60.1003 164.86 60.5669 165.308 60.8843 165.868C61.2016 166.409 61.4163 167.007 61.5283 167.66C61.6403 168.313 61.6963 168.957 61.6963 169.592V179ZM63.7488 174.604C63.7488 173.633 64.0195 172.784 64.5608 172.056C65.1021 171.328 65.8488 170.759 66.8008 170.348C67.7528 169.919 68.8448 169.704 70.0768 169.704C70.6741 169.704 71.2621 169.76 71.8408 169.872C72.4195 169.965 72.9235 170.105 73.3528 170.292V169.648C73.3528 167.987 72.3728 167.156 70.4128 167.156C69.5915 167.156 68.8168 167.296 68.0888 167.576C67.3795 167.856 66.6235 168.257 65.8208 168.78L64.4768 165.924C66.4181 164.655 68.5461 164.02 70.8608 164.02C73.0635 164.02 74.7715 164.552 75.9848 165.616C77.2168 166.661 77.8328 168.183 77.8328 170.18V174.016C77.8328 174.464 77.8981 174.781 78.0288 174.968C78.1781 175.155 78.4301 175.257 78.7848 175.276V179C78.3928 179.075 78.0381 179.131 77.7208 179.168C77.4035 179.205 77.1235 179.224 76.8808 179.224C76.0408 179.224 75.3968 179.056 74.9488 178.72C74.5195 178.384 74.2488 177.927 74.1368 177.348L74.0528 176.704C73.3995 177.544 72.6155 178.188 71.7008 178.636C70.7861 179.065 69.8435 179.28 68.8728 179.28C67.9021 179.28 67.0248 179.075 66.2408 178.664C65.4755 178.253 64.8688 177.703 64.4208 177.012C63.9728 176.303 63.7488 175.5 63.7488 174.604ZM72.6528 175.164C73.1195 174.791 73.3528 174.408 73.3528 174.016V172.7C72.9608 172.551 72.5315 172.439 72.0648 172.364C71.6168 172.271 71.2061 172.224 70.8328 172.224C69.9928 172.224 69.3021 172.411 68.7608 172.784C68.2381 173.157 67.9768 173.633 67.9768 174.212C67.9768 174.716 68.1728 175.155 68.5648 175.528C68.9755 175.883 69.5168 176.06 70.1888 176.06C70.6368 176.06 71.0848 175.976 71.5328 175.808C71.9808 175.64 72.3541 175.425 72.6528 175.164ZM87.9782 179V159.12H95.3982C97.5822 159.12 99.4022 159.568 100.858 160.464C102.333 161.341 103.444 162.536 104.19 164.048C104.937 165.541 105.31 167.203 105.31 169.032C105.31 171.048 104.9 172.803 104.078 174.296C103.257 175.789 102.1 176.947 100.606 177.768C99.1316 178.589 97.3956 179 95.3982 179H87.9782ZM100.634 169.032C100.634 167.277 100.177 165.859 99.2622 164.776C98.3476 163.693 97.0596 163.152 95.3982 163.152H92.5702V174.968H95.3982C96.5182 174.968 97.4702 174.716 98.2542 174.212C99.0382 173.689 99.6262 172.98 100.018 172.084C100.429 171.188 100.634 170.171 100.634 169.032ZM114.685 179.28C113.024 179.28 111.605 178.935 110.429 178.244C109.253 177.553 108.348 176.639 107.713 175.5C107.097 174.361 106.789 173.129 106.789 171.804C106.789 170.385 107.097 169.088 107.713 167.912C108.329 166.736 109.225 165.793 110.401 165.084C111.577 164.375 113.005 164.02 114.685 164.02C116.347 164.02 117.765 164.375 118.941 165.084C120.117 165.793 121.004 166.727 121.601 167.884C122.217 169.041 122.525 170.283 122.525 171.608C122.525 172.149 122.488 172.625 122.413 173.036H111.549C111.624 174.025 111.979 174.781 112.613 175.304C113.267 175.808 114.004 176.06 114.825 176.06C115.479 176.06 116.104 175.901 116.701 175.584C117.299 175.267 117.709 174.837 117.933 174.296L121.741 175.36C121.163 176.517 120.257 177.46 119.025 178.188C117.812 178.916 116.365 179.28 114.685 179.28ZM111.437 170.292H117.821C117.728 169.359 117.383 168.621 116.785 168.08C116.207 167.52 115.488 167.24 114.629 167.24C113.771 167.24 113.043 167.52 112.445 168.08C111.867 168.64 111.531 169.377 111.437 170.292ZM127.926 179L122.718 164.3H127.338L130.558 174.968L133.778 164.3H137.978L132.798 179H127.926ZM146.213 179.28C144.551 179.28 143.133 178.935 141.957 178.244C140.781 177.553 139.875 176.639 139.241 175.5C138.625 174.361 138.317 173.129 138.317 171.804C138.317 170.385 138.625 169.088 139.241 167.912C139.857 166.736 140.753 165.793 141.929 165.084C143.105 164.375 144.533 164.02 146.213 164.02C147.874 164.02 149.293 164.375 150.469 165.084C151.645 165.793 152.531 166.727 153.129 167.884C153.745 169.041 154.053 170.283 154.053 171.608C154.053 172.149 154.015 172.625 153.941 173.036H143.077C143.151 174.025 143.506 174.781 144.141 175.304C144.794 175.808 145.531 176.06 146.353 176.06C147.006 176.06 147.631 175.901 148.229 175.584C148.826 175.267 149.237 174.837 149.461 174.296L153.269 175.36C152.69 176.517 151.785 177.46 150.553 178.188C149.339 178.916 147.893 179.28 146.213 179.28ZM142.965 170.292H149.349C149.255 169.359 148.91 168.621 148.313 168.08C147.734 167.52 147.015 167.24 146.157 167.24C145.298 167.24 144.57 167.52 143.973 168.08C143.394 168.64 143.058 169.377 142.965 170.292ZM156.027 158.56H160.507V173.764C160.507 174.38 160.619 174.819 160.843 175.08C161.067 175.341 161.384 175.472 161.795 175.472C162.075 175.472 162.355 175.435 162.635 175.36C162.934 175.267 163.195 175.164 163.419 175.052L164.007 178.412C163.447 178.673 162.803 178.879 162.075 179.028C161.347 179.177 160.666 179.252 160.031 179.252C158.762 179.252 157.772 178.916 157.063 178.244C156.372 177.572 156.027 176.601 156.027 175.332V158.56ZM172.462 179.28C170.782 179.28 169.354 178.925 168.178 178.216C167.021 177.507 166.134 176.573 165.518 175.416C164.902 174.259 164.594 173.008 164.594 171.664C164.594 170.301 164.902 169.041 165.518 167.884C166.134 166.727 167.03 165.793 168.206 165.084C169.382 164.375 170.801 164.02 172.462 164.02C174.123 164.02 175.542 164.375 176.718 165.084C177.894 165.793 178.79 166.727 179.406 167.884C180.022 169.041 180.33 170.301 180.33 171.664C180.33 173.008 180.022 174.259 179.406 175.416C178.79 176.573 177.894 177.507 176.718 178.216C175.542 178.925 174.123 179.28 172.462 179.28ZM169.186 171.664C169.186 172.803 169.494 173.727 170.11 174.436C170.745 175.145 171.529 175.5 172.462 175.5C173.377 175.5 174.142 175.145 174.758 174.436C175.393 173.727 175.71 172.803 175.71 171.664C175.71 170.525 175.393 169.601 174.758 168.892C174.142 168.183 173.377 167.828 172.462 167.828C171.529 167.828 170.745 168.183 170.11 168.892C169.494 169.601 169.186 170.525 169.186 171.664ZM191.848 179.28C190.746 179.28 189.776 179.047 188.936 178.58C188.114 178.095 187.48 177.441 187.032 176.62V184.964H182.552V164.3H186.444V166.68C186.985 165.84 187.666 165.187 188.488 164.72C189.309 164.253 190.27 164.02 191.372 164.02C192.678 164.02 193.845 164.365 194.872 165.056C195.917 165.728 196.729 166.633 197.308 167.772C197.905 168.911 198.204 170.189 198.204 171.608C198.204 173.064 197.933 174.371 197.392 175.528C196.85 176.685 196.094 177.6 195.124 178.272C194.172 178.944 193.08 179.28 191.848 179.28ZM190.336 175.5C190.97 175.5 191.54 175.323 192.044 174.968C192.548 174.595 192.94 174.119 193.22 173.54C193.5 172.943 193.64 172.289 193.64 171.58C193.64 170.497 193.304 169.601 192.632 168.892C191.978 168.183 191.138 167.828 190.112 167.828C189.496 167.828 188.898 168.015 188.32 168.388C187.76 168.743 187.33 169.228 187.032 169.844V172.868C187.33 173.615 187.778 174.24 188.376 174.744C188.992 175.248 189.645 175.5 190.336 175.5ZM207.49 179.28C205.829 179.28 204.41 178.935 203.234 178.244C202.058 177.553 201.153 176.639 200.518 175.5C199.902 174.361 199.594 173.129 199.594 171.804C199.594 170.385 199.902 169.088 200.518 167.912C201.134 166.736 202.03 165.793 203.206 165.084C204.382 164.375 205.81 164.02 207.49 164.02C209.151 164.02 210.57 164.375 211.746 165.084C212.922 165.793 213.809 166.727 214.406 167.884C215.022 169.041 215.33 170.283 215.33 171.608C215.33 172.149 215.293 172.625 215.218 173.036H204.354C204.429 174.025 204.783 174.781 205.418 175.304C206.071 175.808 206.809 176.06 207.63 176.06C208.283 176.06 208.909 175.901 209.506 175.584C210.103 175.267 210.514 174.837 210.738 174.296L214.546 175.36C213.967 176.517 213.062 177.46 211.83 178.188C210.617 178.916 209.17 179.28 207.49 179.28ZM204.242 170.292H210.626C210.533 169.359 210.187 168.621 209.59 168.08C209.011 167.52 208.293 167.24 207.434 167.24C206.575 167.24 205.847 167.52 205.25 168.08C204.671 168.64 204.335 169.377 204.242 170.292ZM226.684 168.136C225.602 168.155 224.622 168.332 223.744 168.668C222.867 169.004 222.232 169.508 221.84 170.18V179H217.36V164.3H221.476V167.268C221.98 166.279 222.634 165.504 223.436 164.944C224.239 164.384 225.079 164.095 225.956 164.076C226.33 164.076 226.572 164.085 226.684 164.104V168.136ZM234.199 179.28C232.93 179.28 231.698 179.075 230.503 178.664C229.327 178.235 228.329 177.628 227.507 176.844L229.047 174.016C230.858 175.341 232.529 176.004 234.059 176.004C234.638 176.004 235.086 175.911 235.403 175.724C235.721 175.537 235.879 175.248 235.879 174.856C235.879 174.445 235.665 174.156 235.235 173.988C234.806 173.801 234.171 173.587 233.331 173.344C232.211 172.971 231.278 172.607 230.531 172.252C229.785 171.897 229.225 171.468 228.851 170.964C228.478 170.46 228.291 169.788 228.291 168.948C228.291 167.473 228.842 166.288 229.943 165.392C231.045 164.477 232.538 164.02 234.423 164.02C235.431 164.02 236.411 164.179 237.363 164.496C238.334 164.813 239.239 165.345 240.079 166.092L238.343 168.892C237.503 168.313 236.757 167.893 236.103 167.632C235.45 167.371 234.815 167.24 234.199 167.24C233.714 167.24 233.303 167.333 232.967 167.52C232.631 167.688 232.463 167.987 232.463 168.416C232.463 168.827 232.65 169.135 233.023 169.34C233.397 169.527 233.975 169.732 234.759 169.956C235.954 170.311 236.953 170.675 237.755 171.048C238.577 171.403 239.183 171.851 239.575 172.392C239.986 172.915 240.191 173.615 240.191 174.492C240.191 175.985 239.65 177.161 238.567 178.02C237.485 178.86 236.029 179.28 234.199 179.28Z" fill="#F9E1CF"/>
</svg>
