<svg width="173" height="185" viewBox="0 0 173 185" fill="none" xmlns="http://www.w3.org/2000/svg">
<path d="M0.368 165V142.28H8.624C11.0987 142.28 13.168 142.792 14.832 143.816C16.496 144.819 17.744 146.184 18.576 147.912C19.408 149.619 19.824 151.517 19.824 153.608C19.824 155.912 19.3653 157.917 18.448 159.624C17.5307 161.331 16.2293 162.653 14.544 163.592C12.8587 164.531 10.8853 165 8.624 165H0.368ZM15.376 153.608C15.376 152.136 15.1093 150.845 14.576 149.736C14.0427 148.605 13.2747 147.731 12.272 147.112C11.2693 146.472 10.0533 146.152 8.624 146.152H4.784V161.128H8.624C10.0747 161.128 11.3013 160.808 12.304 160.168C13.3067 159.507 14.064 158.611 14.576 157.48C15.1093 156.328 15.376 155.037 15.376 153.608ZM30.6343 165.32C28.8209 165.32 27.2529 164.925 25.9303 164.136C24.6289 163.347 23.6156 162.301 22.8903 161C22.1649 159.677 21.8023 158.248 21.8023 156.712C21.8023 155.133 22.1543 153.683 22.8583 152.36C23.5836 151.016 24.6076 149.949 25.9303 149.16C27.2529 148.349 28.8316 147.944 30.6663 147.944C32.5009 147.944 34.0689 148.349 35.3703 149.16C36.6716 149.949 37.6636 151.005 38.3463 152.328C39.0503 153.629 39.4023 155.037 39.4023 156.552C39.4023 157.107 39.3703 157.587 39.3063 157.992H26.3463C26.4529 159.293 26.9329 160.317 27.7863 161.064C28.6609 161.811 29.6636 162.184 30.7943 162.184C31.6476 162.184 32.4476 161.981 33.1943 161.576C33.9623 161.149 34.4849 160.595 34.7623 159.912L38.4423 160.936C37.8236 162.216 36.8316 163.272 35.4663 164.104C34.1009 164.915 32.4903 165.32 30.6343 165.32ZM26.2503 155.272H35.0183C34.8903 154.013 34.4103 153 33.5783 152.232C32.7676 151.443 31.7756 151.048 30.6023 151.048C29.4503 151.048 28.4583 151.443 27.6263 152.232C26.8156 153 26.3569 154.013 26.2503 155.272ZM46.0578 165L39.8818 148.232H44.3298L48.5538 161.096L52.8098 148.232H56.8738L50.7298 165H46.0578ZM66.353 165.32C64.5397 165.32 62.9717 164.925 61.649 164.136C60.3477 163.347 59.3343 162.301 58.609 161C57.8837 159.677 57.521 158.248 57.521 156.712C57.521 155.133 57.873 153.683 58.577 152.36C59.3023 151.016 60.3263 149.949 61.649 149.16C62.9717 148.349 64.5503 147.944 66.385 147.944C68.2197 147.944 69.7877 148.349 71.089 149.16C72.3903 149.949 73.3823 151.005 74.065 152.328C74.769 153.629 75.121 155.037 75.121 156.552C75.121 157.107 75.089 157.587 75.025 157.992H62.065C62.1717 159.293 62.6517 160.317 63.505 161.064C64.3797 161.811 65.3823 162.184 66.513 162.184C67.3663 162.184 68.1663 161.981 68.913 161.576C69.681 161.149 70.2037 160.595 70.481 159.912L74.161 160.936C73.5423 162.216 72.5503 163.272 71.185 164.104C69.8197 164.915 68.209 165.32 66.353 165.32ZM61.969 155.272H70.737C70.609 154.013 70.129 153 69.297 152.232C68.4863 151.443 67.4943 151.048 66.321 151.048C65.169 151.048 64.177 151.443 63.345 152.232C62.5343 153 62.0757 154.013 61.969 155.272ZM77.7013 141.64H81.9893V159.624C81.9893 160.413 82.1173 160.936 82.3733 161.192C82.6293 161.448 82.9813 161.576 83.4293 161.576C83.7706 161.576 84.1226 161.533 84.4853 161.448C84.8479 161.363 85.1679 161.256 85.4453 161.128L86.0213 164.392C85.4453 164.669 84.7733 164.883 84.0052 165.032C83.2373 165.181 82.5439 165.256 81.9253 165.256C80.5813 165.256 79.5359 164.904 78.7893 164.2C78.0639 163.475 77.7013 162.451 77.7013 161.128V141.64ZM95.6335 165.32C93.7988 165.32 92.2202 164.925 90.8975 164.136C89.5962 163.325 88.5935 162.259 87.8895 160.936C87.1855 159.613 86.8335 158.184 86.8335 156.648C86.8335 155.091 87.1855 153.651 87.8895 152.328C88.6148 151.005 89.6282 149.949 90.9295 149.16C92.2522 148.349 93.8202 147.944 95.6335 147.944C97.4468 147.944 99.0042 148.349 100.306 149.16C101.628 149.949 102.642 151.005 103.346 152.328C104.05 153.651 104.402 155.091 104.402 156.648C104.402 158.184 104.05 159.613 103.346 160.936C102.642 162.259 101.628 163.325 100.306 164.136C99.0042 164.925 97.4468 165.32 95.6335 165.32ZM91.2495 156.648C91.2495 157.629 91.4415 158.504 91.8255 159.272C92.2095 160.019 92.7322 160.605 93.3935 161.032C94.0548 161.459 94.8015 161.672 95.6335 161.672C96.4442 161.672 97.1802 161.459 97.8415 161.032C98.5028 160.584 99.0255 159.987 99.4095 159.24C99.8148 158.472 100.018 157.597 100.018 156.616C100.018 155.656 99.8148 154.803 99.4095 154.056C99.0255 153.288 98.5028 152.691 97.8415 152.264C97.1802 151.816 96.4442 151.592 95.6335 151.592C94.8015 151.592 94.0548 151.816 93.3935 152.264C92.7322 152.691 92.2095 153.288 91.8255 154.056C91.4415 154.803 91.2495 155.667 91.2495 156.648ZM117.344 165.32C116.021 165.32 114.869 165.021 113.888 164.424C112.906 163.827 112.138 163.037 111.584 162.056V171.816H107.296V148.232H111.04V151.112C111.658 150.131 112.458 149.363 113.44 148.808C114.442 148.232 115.573 147.944 116.832 147.944C118.346 147.944 119.69 148.339 120.864 149.128C122.037 149.896 122.965 150.941 123.648 152.264C124.33 153.565 124.672 155.005 124.672 156.584C124.672 158.227 124.352 159.709 123.712 161.032C123.093 162.333 122.229 163.379 121.12 164.168C120.032 164.936 118.773 165.32 117.344 165.32ZM115.904 161.672C116.778 161.672 117.536 161.437 118.176 160.968C118.837 160.477 119.349 159.848 119.712 159.08C120.096 158.291 120.288 157.459 120.288 156.584C120.288 155.645 120.085 154.803 119.68 154.056C119.274 153.288 118.72 152.691 118.016 152.264C117.333 151.816 116.544 151.592 115.648 151.592C114.837 151.592 114.026 151.859 113.216 152.392C112.405 152.925 111.861 153.597 111.584 154.408V158.344C111.968 159.283 112.554 160.072 113.344 160.712C114.133 161.352 114.986 161.672 115.904 161.672ZM135.353 165.32C133.54 165.32 131.972 164.925 130.649 164.136C129.348 163.347 128.334 162.301 127.609 161C126.884 159.677 126.521 158.248 126.521 156.712C126.521 155.133 126.873 153.683 127.577 152.36C128.302 151.016 129.326 149.949 130.649 149.16C131.972 148.349 133.55 147.944 135.385 147.944C137.22 147.944 138.788 148.349 140.089 149.16C141.39 149.949 142.382 151.005 143.065 152.328C143.769 153.629 144.121 155.037 144.121 156.552C144.121 157.107 144.089 157.587 144.025 157.992H131.065C131.172 159.293 131.652 160.317 132.505 161.064C133.38 161.811 134.382 162.184 135.513 162.184C136.366 162.184 137.166 161.981 137.913 161.576C138.681 161.149 139.204 160.595 139.481 159.912L143.161 160.936C142.542 162.216 141.55 163.272 140.185 164.104C138.82 164.915 137.209 165.32 135.353 165.32ZM130.969 155.272H139.737C139.609 154.013 139.129 153 138.297 152.232C137.486 151.443 136.494 151.048 135.321 151.048C134.169 151.048 133.177 151.443 132.345 152.232C131.534 153 131.076 154.013 130.969 155.272ZM156.717 151.944C155.416 151.944 154.253 152.2 153.229 152.712C152.205 153.203 151.469 153.917 151.021 154.856V165H146.733V148.232H150.669V151.816C151.245 150.664 151.992 149.757 152.909 149.096C153.848 148.435 154.829 148.072 155.853 148.008C156.301 148.008 156.589 148.019 156.717 148.04V151.944ZM165.284 165.32C163.855 165.32 162.49 165.085 161.188 164.616C159.887 164.147 158.767 163.453 157.828 162.536L159.364 159.752C160.367 160.563 161.348 161.16 162.308 161.544C163.268 161.928 164.207 162.12 165.124 162.12C165.956 162.12 166.618 161.971 167.108 161.672C167.62 161.373 167.876 160.925 167.876 160.328C167.876 159.709 167.567 159.293 166.948 159.08C166.33 158.845 165.466 158.557 164.356 158.216C163.119 157.832 162.084 157.437 161.252 157.032C160.42 156.627 159.791 156.136 159.364 155.56C158.959 154.984 158.756 154.237 158.756 153.32C158.756 151.677 159.375 150.365 160.612 149.384C161.85 148.403 163.492 147.912 165.54 147.912C166.735 147.912 167.866 148.104 168.932 148.488C169.999 148.851 170.97 149.448 171.844 150.28L170.116 153C168.474 151.72 166.884 151.08 165.348 151.08C164.666 151.08 164.058 151.208 163.524 151.464C163.012 151.72 162.756 152.168 162.756 152.808C162.756 153.405 163.002 153.832 163.492 154.088C164.004 154.344 164.772 154.621 165.796 154.92C167.119 155.325 168.239 155.72 169.156 156.104C170.095 156.488 170.799 156.979 171.268 157.576C171.759 158.173 172.004 158.984 172.004 160.008C172.004 161.672 171.396 162.973 170.18 163.912C168.964 164.851 167.332 165.32 165.284 165.32Z" fill="#F9E1CF"/>
<rect x="33.2739" y="22.274" width="101.452" height="101.452" rx="19" stroke="#7216F4" stroke-width="2"/>
<rect x="54.3152" y="43.3151" width="61.1233" height="61.1233" stroke="#7216F4" stroke-width="2"/>
<line x1="33.0273" y1="43.3151" x2="20.9999" y2="43.3151" stroke="#7216F4" stroke-width="2" stroke-linecap="round"/>
<line x1="33.0273" y1="104.685" x2="20.9999" y2="104.685" stroke="#7216F4" stroke-width="2" stroke-linecap="round"/>
<line x1="33.0273" y1="95.9178" x2="20.9999" y2="95.9178" stroke="#7216F4" stroke-width="2" stroke-linecap="round"/>
<line x1="33.0273" y1="87.1507" x2="20.9999" y2="87.1507" stroke="#7216F4" stroke-width="2" stroke-linecap="round"/>
<line x1="33.0273" y1="78.3836" x2="20.9999" y2="78.3836" stroke="#7216F4" stroke-width="2" stroke-linecap="round"/>
<line x1="33.0273" y1="69.6164" x2="20.9999" y2="69.6164" stroke="#7216F4" stroke-width="2" stroke-linecap="round"/>
<line x1="33.0273" y1="60.8493" x2="20.9999" y2="60.8493" stroke="#7216F4" stroke-width="2" stroke-linecap="round"/>
<line x1="33.0273" y1="52.0822" x2="20.9999" y2="52.0822" stroke="#7216F4" stroke-width="2" stroke-linecap="round"/>
<line x1="54.3152" y1="123.973" x2="54.3152" y2="136" stroke="#7216F4" stroke-width="2" stroke-linecap="round"/>
<line x1="115.685" y1="123.973" x2="115.685" y2="136" stroke="#7216F4" stroke-width="2" stroke-linecap="round"/>
<line x1="106.918" y1="123.973" x2="106.918" y2="136" stroke="#7216F4" stroke-width="2" stroke-linecap="round"/>
<line x1="98.1506" y1="123.973" x2="98.1506" y2="136" stroke="#7216F4" stroke-width="2" stroke-linecap="round"/>
<line x1="89.3835" y1="123.973" x2="89.3835" y2="136" stroke="#7216F4" stroke-width="2" stroke-linecap="round"/>
<line x1="80.6165" y1="123.973" x2="80.6165" y2="136" stroke="#7216F4" stroke-width="2" stroke-linecap="round"/>
<line x1="71.8494" y1="123.973" x2="71.8494" y2="136" stroke="#7216F4" stroke-width="2" stroke-linecap="round"/>
<line x1="63.0823" y1="123.973" x2="63.0823" y2="136" stroke="#7216F4" stroke-width="2" stroke-linecap="round"/>
<line x1="54.3152" y1="10" x2="54.3152" y2="22.0274" stroke="#7216F4" stroke-width="2" stroke-linecap="round"/>
<line x1="115.685" y1="10" x2="115.685" y2="22.0274" stroke="#7216F4" stroke-width="2" stroke-linecap="round"/>
<line x1="106.918" y1="10" x2="106.918" y2="22.0274" stroke="#7216F4" stroke-width="2" stroke-linecap="round"/>
<line x1="98.1506" y1="10" x2="98.1506" y2="22.0274" stroke="#7216F4" stroke-width="2" stroke-linecap="round"/>
<line x1="89.3835" y1="10" x2="89.3835" y2="22.0274" stroke="#7216F4" stroke-width="2" stroke-linecap="round"/>
<line x1="80.6165" y1="10" x2="80.6165" y2="22.0274" stroke="#7216F4" stroke-width="2" stroke-linecap="round"/>
<line x1="71.8494" y1="10" x2="71.8494" y2="22.0274" stroke="#7216F4" stroke-width="2" stroke-linecap="round"/>
<line x1="63.0823" y1="10" x2="63.0823" y2="22.0274" stroke="#7216F4" stroke-width="2" stroke-linecap="round"/>
<line x1="147" y1="43.3151" x2="134.973" y2="43.3151" stroke="#7216F4" stroke-width="2" stroke-linecap="round"/>
<line x1="147" y1="104.685" x2="134.973" y2="104.685" stroke="#7216F4" stroke-width="2" stroke-linecap="round"/>
<line x1="147" y1="95.9178" x2="134.973" y2="95.9178" stroke="#7216F4" stroke-width="2" stroke-linecap="round"/>
<line x1="147" y1="87.1507" x2="134.973" y2="87.1507" stroke="#7216F4" stroke-width="2" stroke-linecap="round"/>
<line x1="147" y1="78.3836" x2="134.973" y2="78.3836" stroke="#7216F4" stroke-width="2" stroke-linecap="round"/>
<line x1="147" y1="69.6164" x2="134.973" y2="69.6164" stroke="#7216F4" stroke-width="2" stroke-linecap="round"/>
<line x1="147" y1="60.8493" x2="134.973" y2="60.8493" stroke="#7216F4" stroke-width="2" stroke-linecap="round"/>
<line x1="147" y1="52.0822" x2="134.973" y2="52.0822" stroke="#7216F4" stroke-width="2" stroke-linecap="round"/>
<path d="M48.544 60.28H53.024L61.376 83H56.832L54.72 77.336H46.784L44.704 83H40.16L48.544 60.28ZM53.92 74.232L50.784 64.856L47.52 74.232H53.92ZM63.3263 59.64H67.6143V77.624C67.6143 78.4133 67.7423 78.936 67.9983 79.192C68.2543 79.448 68.6063 79.576 69.0543 79.576C69.3956 79.576 69.7476 79.5333 70.1103 79.448C70.4729 79.3627 70.7929 79.256 71.0703 79.128L71.6463 82.392C71.0703 82.6693 70.3983 82.8827 69.6302 83.032C68.8623 83.1813 68.1689 83.256 67.5503 83.256C66.2063 83.256 65.1609 82.904 64.4143 82.2C63.6889 81.4747 63.3263 80.4507 63.3263 79.128V59.64ZM83.5625 83.32C82.2398 83.32 81.0878 83.0213 80.1065 82.424C79.1252 81.8267 78.3572 81.0373 77.8025 80.056V89.816H73.5145V66.232H77.2585V69.112C77.8772 68.1307 78.6772 67.3627 79.6585 66.808C80.6612 66.232 81.7918 65.944 83.0505 65.944C84.5652 65.944 85.9092 66.3387 87.0825 67.128C88.2558 67.896 89.1838 68.9413 89.8665 70.264C90.5492 71.5653 90.8905 73.0053 90.8905 74.584C90.8905 76.2267 90.5705 77.7093 89.9305 79.032C89.3118 80.3333 88.4478 81.3787 87.3385 82.168C86.2505 82.936 84.9918 83.32 83.5625 83.32ZM82.1225 79.672C82.9972 79.672 83.7545 79.4373 84.3945 78.968C85.0558 78.4773 85.5678 77.848 85.9305 77.08C86.3145 76.2907 86.5065 75.4587 86.5065 74.584C86.5065 73.6453 86.3038 72.8027 85.8985 72.056C85.4932 71.288 84.9385 70.6907 84.2345 70.264C83.5518 69.816 82.7625 69.592 81.8665 69.592C81.0558 69.592 80.2452 69.8587 79.4345 70.392C78.6238 70.9253 78.0798 71.5973 77.8025 72.408V76.344C78.1865 77.2827 78.7732 78.072 79.5625 78.712C80.3518 79.352 81.2052 79.672 82.1225 79.672ZM109.38 83H105.092V73.592C105.092 72.2907 104.836 71.32 104.324 70.68C103.833 70.04 103.15 69.72 102.276 69.72C101.742 69.72 101.188 69.8693 100.612 70.168C100.057 70.4667 99.5451 70.8827 99.0758 71.416C98.6278 71.928 98.2971 72.5253 98.0838 73.208V83H93.7958V59.64H98.0838V69.336C98.7024 68.2693 99.5451 67.4373 100.612 66.84C101.678 66.2427 102.841 65.944 104.1 65.944C105.529 65.944 106.628 66.264 107.396 66.904C108.164 67.544 108.686 68.3653 108.964 69.368C109.241 70.3707 109.38 71.4267 109.38 72.536V83ZM111.956 78.04C111.956 76.952 112.255 76.0027 112.852 75.192C113.471 74.36 114.324 73.72 115.412 73.272C116.5 72.824 117.748 72.6 119.156 72.6C119.86 72.6 120.575 72.664 121.3 72.792C122.026 72.8987 122.655 73.0587 123.188 73.272V72.376C123.188 71.3093 122.868 70.488 122.228 69.912C121.61 69.336 120.682 69.048 119.444 69.048C118.527 69.048 117.652 69.208 116.82 69.528C115.988 69.848 115.114 70.3173 114.196 70.936L112.82 68.12C113.93 67.3947 115.06 66.8507 116.212 66.488C117.386 66.1253 118.612 65.944 119.892 65.944C122.282 65.944 124.138 66.5413 125.46 67.736C126.804 68.9307 127.476 70.6373 127.476 72.856V78.2C127.476 78.6693 127.551 79 127.7 79.192C127.85 79.3627 128.116 79.4693 128.5 79.512V83C128.116 83.0853 127.764 83.1387 127.444 83.16C127.146 83.2027 126.89 83.224 126.676 83.224C125.823 83.224 125.172 83.032 124.724 82.648C124.276 82.264 124.01 81.7947 123.924 81.24L123.828 80.376C123.082 81.336 122.164 82.072 121.076 82.584C120.01 83.0747 118.911 83.32 117.78 83.32C116.65 83.32 115.647 83.096 114.772 82.648C113.898 82.1787 113.204 81.5493 112.692 80.76C112.202 79.9493 111.956 79.0427 111.956 78.04ZM122.388 78.904C122.922 78.392 123.188 77.9013 123.188 77.432V75.736C122.079 75.288 120.959 75.064 119.828 75.064C118.698 75.064 117.78 75.3093 117.076 75.8C116.372 76.2693 116.02 76.8987 116.02 77.688C116.02 78.328 116.276 78.904 116.788 79.416C117.3 79.928 118.036 80.184 118.996 80.184C119.636 80.184 120.255 80.0667 120.852 79.832C121.471 79.5973 121.983 79.288 122.388 78.904Z" fill="#F9E1CF"/>
</svg>
